<svg xmlns="http://www.w3.org/2000/svg" viewBox="0 0 64 64" fill="none">
  <title>Bedrock</title>
  <desc>Layered data foundation with a quality check and upward success signal.</desc>
  <rect x="3" y="3" width="58" height="58" rx="8" fill="#111216"/>
  <rect x="3.5" y="3.5" width="57" height="57" rx="7.5" stroke="#3F3F46"/>
  <path d="M13 43.5H51L56 50H8L13 43.5Z" fill="#2F333A"/>
  <path d="M15.5 35.5H48.5L52.8 41H11.2L15.5 35.5Z" fill="#252932"/>
  <path d="M18.5 27.5H45.5L49.2 32.5H14.8L18.5 27.5Z" fill="#1C2028"/>
  <path d="M21.5 19.5H42.5L45.6 24H18.4L21.5 19.5Z" fill="#181B22"/>
  <path d="M19 46L27.4 38.7L34.2 41.8L46 29" stroke="#FBBF24" stroke-width="3" stroke-linecap="round" stroke-linejoin="round"/>
  <path d="M41.5 29H46V33.5" stroke="#FBBF24" stroke-width="3" stroke-linecap="round" stroke-linejoin="round"/>
  <circle cx="45" cy="18" r="9.5" fill="#0B2F29" stroke="#34D399" stroke-width="2"/>
  <path d="M40.8 18.1L43.8 21.1L49.6 14.8" stroke="#34D399" stroke-width="2.8" stroke-linecap="round" stroke-linejoin="round"/>
  <circle cx="21" cy="38.2" r="1.5" fill="#60A5FA"/>
  <circle cx="28" cy="38.2" r="1.5" fill="#60A5FA"/>
  <path d="M33.5 38.2H43.5" stroke="#71717A" stroke-width="2" stroke-linecap="round"/>
  <circle cx="24" cy="30.2" r="1.4" fill="#60A5FA"/>
  <path d="M29.5 30.2H40" stroke="#71717A" stroke-width="2" stroke-linecap="round"/>
  <path d="M16 50H48" stroke="#09090B" stroke-width="2" stroke-linecap="round" opacity=".35"/>
</svg>
